<svg width="24" height="24" viewBox="0 0 24 24" fill="none" xmlns="http://www.w3.org/2000/svg">
<g clip-path="url(#clip0_285_2625)">
<path fill-rule="evenodd" clip-rule="evenodd" d="M18.3728 24.0002C15.5978 24.0002 13.3384 21.7408 13.3384 18.9658C13.3384 16.1908 15.5978 13.9314 18.3728 13.9314C21.1478 13.9314 23.4072 16.1908 23.4072 18.9658C23.4072 21.7408 21.1478 24.0002 18.3728 24.0002ZM18.0915 21.7681C17.6307 21.7189 17.1905 21.5979 16.8681 21.4314C16.7321 21.3611 16.6759 21.1924 16.7462 21.0518C16.8165 20.9111 16.9853 20.8596 17.1259 20.9299C17.7118 21.2346 18.8368 21.3564 19.465 21.0611C19.704 20.9486 19.8447 20.7939 19.8962 20.5877C20.004 20.1143 19.9712 19.7721 19.7978 19.5658C19.5259 19.2424 18.8978 19.2236 18.3821 19.2471C17.6978 19.2752 16.9384 19.2377 16.5118 18.7267C16.2212 18.3752 16.1509 17.8689 16.2962 17.2174C16.3806 16.8377 16.6384 16.5424 17.0368 16.3549C17.3383 16.2154 17.7085 16.148 18.0915 16.1375V15.7127C18.0915 15.558 18.2181 15.4314 18.3728 15.4314C18.5275 15.4314 18.654 15.558 18.654 15.7127V16.161C19.1135 16.2109 19.5522 16.3325 19.8728 16.5002C20.0087 16.5705 20.065 16.7392 19.9946 16.8799C19.9243 17.0205 19.7556 17.0721 19.615 17.0017C19.029 16.697 17.904 16.5799 17.2759 16.8705C17.0368 16.983 16.8962 17.1377 16.8446 17.3439C16.7368 17.8173 16.7696 18.1595 16.9431 18.3658C17.215 18.6892 17.8431 18.708 18.3587 18.6846C19.0431 18.6564 19.8025 18.6939 20.229 19.2049C20.5197 19.5564 20.59 20.0627 20.4446 20.7142C20.3603 21.0939 20.1025 21.3892 19.704 21.5768C19.4051 21.7134 19.0362 21.78 18.654 21.7908V22.2189C18.654 22.3736 18.5275 22.5002 18.3728 22.5002C18.2181 22.5002 18.0915 22.3736 18.0915 22.2189V21.7681Z" fill="white"/>
<path fill-rule="evenodd" clip-rule="evenodd" d="M11.1889 21.7788C11.0651 21.7755 10.9416 21.77 10.8186 21.7626C9.41968 21.503 8.11349 20.4316 7.08876 18.6823C6.7918 18.1756 6.52749 17.6274 6.29746 17.0454C7.80075 17.4958 9.46328 17.7458 11.1889 17.7716L11.1889 21.7788ZM8.63926 21.4085C6.8202 20.9188 5.15349 19.9589 3.7852 18.5907C2.41696 17.2224 1.4571 15.5557 0.967387 13.7367C1.5451 14.5 2.36019 15.1993 3.39062 15.8032C4.05549 16.1927 4.78665 16.5285 5.56879 16.807C5.84729 17.5891 6.18302 18.3202 6.57249 18.9851C7.17654 20.0157 7.87594 20.8308 8.63926 21.4085ZM11.7846 17.7717C12.1947 17.7658 12.6034 17.7474 13.0091 17.7157C12.9155 18.1175 12.8658 18.5359 12.8658 18.9657C12.8658 19.8031 13.0542 20.5973 13.3902 21.3088C12.9879 21.5334 12.5758 21.6846 12.1574 21.7625C12.0333 21.77 11.909 21.7755 11.7846 21.7788L11.7846 17.7717ZM0.613394 11.5586C0.606046 11.4367 0.600585 11.3144 0.597263 11.1918H4.6042C4.63043 12.9157 4.88032 14.5765 5.3303 16.0783C4.74827 15.8483 4.20012 15.584 3.69345 15.287C1.94471 14.2626 0.873387 12.957 0.613394 11.5586ZM5.20488 11.1918H11.1889V17.171C9.35379 17.1428 7.59536 16.8544 6.03955 16.3361C5.5218 14.7817 5.2335 13.025 5.20488 11.1918ZM11.7846 11.1918H17.7736C17.7612 11.9796 17.7003 12.757 17.5925 13.5144C15.5565 13.8046 13.8753 15.213 13.1931 17.0955C12.728 17.138 12.2568 17.1633 11.7846 17.1709L11.7846 11.1918ZM18.3694 11.1918H22.3765C22.373 11.3236 22.3671 11.455 22.3589 11.5861C22.1871 12.4643 21.6932 13.3098 20.9004 14.0746C20.1429 13.6814 19.2832 13.4588 18.3727 13.4588C18.3154 13.4588 18.2584 13.46 18.2016 13.4618C18.302 12.7197 18.358 11.96 18.3694 11.1918ZM22.0062 13.7327C21.9269 14.0267 21.8351 14.3176 21.7309 14.605C21.6344 14.5305 21.5355 14.459 21.434 14.3908C21.6452 14.1771 21.8361 13.9575 22.0062 13.7327ZM0.596924 10.5961C0.600246 10.4701 0.60576 10.3445 0.613347 10.2193C0.873381 8.82095 1.94469 7.51533 3.69339 6.49095C4.20005 6.19397 4.74821 5.92963 5.33024 5.69959C4.87941 7.20436 4.62938 8.86862 4.60396 10.5961L0.596924 10.5961ZM6.03948 5.44186C7.59528 4.92363 9.35372 4.6352 11.1889 4.60702V10.5961H5.20464C5.23239 8.75922 5.5208 6.99902 6.03948 5.44186ZM11.7845 4.60702C13.6234 4.63516 15.3819 4.92377 16.9387 5.44117C17.4575 6.99851 17.746 8.75895 17.7737 10.5961H11.7845L11.7845 4.60702ZM17.6404 5.69525C18.2248 5.92513 18.7755 6.18929 19.285 6.486C21.0158 7.49988 22.083 8.78932 22.3568 10.1714C22.3659 10.3125 22.3726 10.454 22.3764 10.5961H18.3694C18.3435 8.86685 18.0925 7.20104 17.6404 5.69525ZM0.969018 8.03903C1.45999 6.22138 2.42068 4.55671 3.78515 3.19223C5.1529 1.82448 6.82092 0.864781 8.63917 0.374914C7.87588 0.951894 7.17603 1.76536 6.57244 2.79283C6.18297 3.45768 5.8472 4.18882 5.56871 4.97097C4.78657 5.24948 4.05543 5.58525 3.39057 5.97473C2.36113 6.57812 1.54662 7.27668 0.969018 8.03903ZM10.7797 0.022766C10.9156 0.0140894 11.052 0.00781773 11.1889 0.00416369V4.00634C9.46321 4.03216 7.80067 4.28213 6.29738 4.73255C6.5274 4.15052 6.79174 3.60234 7.0887 3.09567C8.10391 1.36256 9.39545 0.294798 10.7797 0.022766ZM11.7845 0.00415039C11.922 0.0078177 12.0591 0.0141027 12.1957 0.0228325C13.5819 0.294972 14.8703 1.36268 15.8897 3.09567C16.1869 3.60282 16.4515 4.15157 16.6817 4.73423C15.1769 4.28276 13.5124 4.03219 11.7846 4.00633L11.7845 0.00415039ZM14.3316 0.373686C16.1517 0.863166 17.8194 1.82332 19.1883 3.19225C20.5547 4.55862 21.5138 6.22256 22.0042 8.03868C21.4266 7.27646 20.6121 6.57806 19.5829 5.97477C18.9174 5.58495 18.1856 5.24894 17.4027 4.97029C17.1246 4.19029 16.7895 3.46108 16.401 2.79784C15.7967 1.76687 15.0959 0.951449 14.3316 0.373686Z" fill="white"/>
</g>
<defs>
<clipPath id="clip0_285_2625">
<rect width="24" height="24" fill="white"/>
</clipPath>
</defs>
</svg>
