<svg width="139" height="40" viewBox="0 0 139 40" fill="none" xmlns="http://www.w3.org/2000/svg">
<g opacity="0.9">
<path d="M26.2318 19.9922C26.2318 26.8046 20.7092 32.3272 13.8968 32.3272C7.08434 32.3272 1.56177 26.8046 1.56177 19.9922C1.56177 13.1797 7.08434 7.65717 13.8968 7.65717C20.7092 7.65717 26.2318 13.1797 26.2318 19.9922Z" stroke="#E6F0ED" stroke-width="3"/>
<path d="M18.617 24.7123C16.0719 27.2574 13.2076 28.8981 10.6934 29.5446C8.1415 30.2008 6.244 29.7837 5.17469 28.7144C4.10537 27.6451 3.68827 25.7476 4.34447 23.1957C4.99098 20.6815 6.63167 17.8172 9.17675 15.2721C11.7218 12.727 14.5861 11.0864 17.1003 10.4399C19.6522 9.78365 21.5497 10.2008 22.619 11.2701C23.6883 12.3394 24.1054 14.2369 23.4492 16.7888C22.8027 19.303 21.162 22.1672 18.617 24.7123Z" stroke="#E6F0ED" stroke-width="3"/>
<path d="M18.6167 15.2721C21.1618 17.8172 22.8025 20.6814 23.449 23.1956C24.1052 25.7475 23.6881 27.645 22.6188 28.7143C21.5495 29.7836 19.652 30.2008 17.1001 29.5445C14.5859 28.898 11.7216 27.2574 9.1765 24.7123C6.63142 22.1672 4.99072 19.3029 4.34422 16.7887C3.68802 14.2368 4.10512 12.3393 5.17443 11.27C6.24375 10.2007 8.14124 9.7836 10.6932 10.4398C13.2073 11.0863 16.0716 12.727 18.6167 15.2721Z" stroke="#E6F0ED" stroke-width="3"/>
<path d="M46.5067 28.5333C50.4317 28.5333 53.0817 26.4833 53.0817 23.2083C53.0817 16.2833 43.8817 19.2333 43.8817 15.5833C43.8817 14.5583 44.8067 13.8583 46.2817 13.8583C47.9567 13.8583 49.0067 14.7583 49.1317 16.1333H52.7067C52.6067 12.8083 50.0567 10.6333 46.2817 10.6333C42.7317 10.6333 40.2317 12.6833 40.2317 15.5833C40.2317 22.4583 49.3067 19.8333 49.3067 23.2583C49.3067 24.5833 48.1817 25.2833 46.5067 25.2833C44.6567 25.2833 43.4817 24.1583 43.3317 22.3833H39.7317C39.8817 26.1083 42.5317 28.5333 46.5067 28.5333Z" fill="#E6F0ED"/>
<path d="M53.9319 33.4333H57.4069V27.2083C58.0819 28.0583 59.3069 28.5333 60.7319 28.5333C64.3569 28.5333 66.8069 25.9583 66.8069 22.0333C66.8069 18.1083 64.5569 15.5333 61.0319 15.5333C59.4069 15.5333 58.1569 16.1333 57.4069 17.1083V15.7333H53.9319V33.4333ZM60.3069 25.5333C58.4319 25.5333 57.2069 24.1333 57.2069 22.0333C57.2069 19.9083 58.4319 18.5083 60.3069 18.5083C62.1319 18.5083 63.3819 19.9083 63.3819 22.0333C63.3819 24.1333 62.1319 25.5333 60.3069 25.5333Z" fill="#E6F0ED"/>
<path d="M67.6477 28.3333H71.1227V21.4333C71.1227 19.8083 72.1977 18.6333 73.7227 18.6333C75.1727 18.6333 76.1727 19.7333 76.1727 21.2583V28.3333H79.6477V20.4833C79.6477 17.5833 77.7977 15.5333 74.9727 15.5333C73.2227 15.5333 71.8477 16.2583 71.1227 17.4833V10.2583H67.6477V28.3333Z" fill="#E6F0ED"/>
<path d="M89.3688 24.0583C89.0938 25.1333 88.1688 25.6833 86.7688 25.6833C85.0188 25.6833 83.8938 24.5833 83.6438 22.8083H92.6938C92.7188 22.5333 92.7438 22.1583 92.7438 21.6833C92.7438 18.8083 90.9688 15.5333 86.5188 15.5333C82.2438 15.5333 80.2938 18.8083 80.2938 22.0083C80.2938 25.1833 82.4938 28.5333 86.7688 28.5333C89.8688 28.5333 92.2688 26.7833 92.7688 24.0583H89.3688ZM86.5188 18.0833C88.1938 18.0833 89.1688 19.2083 89.2688 20.6083H83.6938C83.9938 18.8583 84.9438 18.0833 86.5188 18.0833Z" fill="#E6F0ED"/>
<path d="M101.857 18.6333V15.7333H100.065C98.5395 15.7333 97.5895 16.2583 96.9145 17.8333V15.7333H93.4145V28.3333H96.9145V22.2083C96.9145 20.0583 97.6895 18.6333 99.4145 18.6333H101.857Z" fill="#E6F0ED"/>
<path d="M113.857 15.7333H110.357V22.6333C110.357 24.2333 109.282 25.4333 107.757 25.4333C106.332 25.4333 105.332 24.3333 105.332 22.8083V15.7333H101.857V23.5833C101.857 26.4583 103.707 28.5333 106.532 28.5333C108.257 28.5333 109.657 27.7833 110.357 26.5833V28.3333H113.857V15.7333Z" fill="#E6F0ED"/>
<path d="M115.358 28.3333H118.833V10.2583H115.358V28.3333Z" fill="#E6F0ED"/>
<path d="M128.754 24.0583C128.479 25.1333 127.554 25.6833 126.154 25.6833C124.404 25.6833 123.279 24.5833 123.029 22.8083H132.079C132.104 22.5333 132.129 22.1583 132.129 21.6833C132.129 18.8083 130.354 15.5333 125.904 15.5333C121.629 15.5333 119.679 18.8083 119.679 22.0083C119.679 25.1833 121.879 28.5333 126.154 28.5333C129.254 28.5333 131.654 26.7833 132.154 24.0583H128.754ZM125.904 18.0833C127.579 18.0833 128.554 19.2083 128.654 20.6083H123.079C123.379 18.8583 124.329 18.0833 125.904 18.0833Z" fill="#E6F0ED"/>
</g>
</svg>
