<svg width="16" height="16" viewBox="0 0 16 16" fill="none" xmlns="http://www.w3.org/2000/svg">
<path d="M14.384 4.0318C13.904 4.2398 13.408 4.3838 12.88 4.4478C13.424 4.1278 13.84 3.6158 14.032 2.9918C13.52 3.2958 12.96 3.5038 12.368 3.6318C11.888 3.1198 11.2 2.7998 10.448 2.7998C8.99198 2.7998 7.82398 3.9838 7.82398 5.4238C7.82398 5.6318 7.83998 5.8238 7.88798 6.0158C5.71198 5.9198 3.79198 4.8638 2.49598 3.2798C1.56798 4.9438 2.60798 6.3198 3.29598 6.7838C2.87998 6.7838 2.46398 6.6558 2.11198 6.4638C2.11198 7.7598 3.02398 8.8318 4.20798 9.0718C3.95198 9.1518 3.37598 9.1998 3.02398 9.1198C3.35998 10.1598 4.33598 10.9278 5.47198 10.9438C4.57598 11.6478 3.26398 12.2078 1.58398 12.0318C2.75198 12.7838 4.12798 13.2158 5.61598 13.2158C10.448 13.2158 13.072 9.2158 13.072 5.7598C13.072 5.6478 13.072 5.5358 13.056 5.4238C13.6 5.0238 14.048 4.5598 14.384 4.0318Z" fill="#EAECF0"/>
</svg>
